HIERARCHY
ROOT Hips
{
    OFFSET 0.000000 0.000000 0.000000
    CHANNELS 6 Xposition Yposition Zposition Zrotation Xrotation Yrotation
    JOINT Spine
    {
        OFFSET 0.000001 7.292995 0.000000
        CHANNELS 3 Zrotation Xrotation Yrotation
        JOINT Spine1
        {
            OFFSET -0.000000 20.255388 0.000001
            CHANNELS 3 Zrotation Xrotation Yrotation
            JOINT Neck
            {
                OFFSET 0.000001 20.786594 0.000000
                CHANNELS 3 Zrotation Xrotation Yrotation
                JOINT Head
                {
                    OFFSET 0.000003 12.530788 1.776080
                    CHANNELS 3 Zrotation Xrotation Yrotation
                    End Site
                    {
                        OFFSET 0.000000 17.760757 0.000000
                    }
                }
            }
            JOINT LeftShoulder
            {
                OFFSET 3.550532 15.465697 -0.908801
                CHANNELS 3 Zrotation Xrotation Yrotation
                JOINT LeftArm
                {
                    OFFSET 12.513301 -0.000005 0.000001
                    CHANNELS 3 Zrotation Xrotation Yrotation
                    JOINT LeftForeArm
                    {
                        OFFSET 24.225992 0.000005 0.000000
                        CHANNELS 3 Zrotation Xrotation Yrotation
                        JOINT LeftHand
                        {
                            OFFSET 20.711395 -0.000004 0.000000
                            CHANNELS 3 Zrotation Xrotation Yrotation
                            JOINT LeftHandThumb1
                            {
                                OFFSET 2.121964 -2.411326 3.375861
                                CHANNELS 3 Zrotation Xrotation Yrotation
                                JOINT LeftHandThumb2
                                {
                                    OFFSET 2.803212 -0.000001 -0.000002
                                    CHANNELS 3 Zrotation Xrotation Yrotation
                                    JOINT LeftHandThumb3
                                    {
                                        OFFSET 2.395929 0.000000 0.000000
                                        CHANNELS 3 Zrotation Xrotation Yrotation
                                        End Site
                                        {
                                            OFFSET 2.127676 0.000000 0.000000
                                        }
                                    }
                                }
                            }
                            JOINT LeftHandIndex1
                            {
                                OFFSET 8.680776 0.000004 3.375861
                                CHANNELS 3 Zrotation Xrotation Yrotation
                                JOINT LeftHandIndex2
                                {
                                    OFFSET 4.218180 -0.000002 0.000001
                                    CHANNELS 3 Zrotation Xrotation Yrotation
                                    JOINT LeftHandIndex3
                                    {
                                        OFFSET 2.109090 0.000001 -0.000000
                                        CHANNELS 3 Zrotation Xrotation Yrotation
                                        End Site
                                        {
                                            OFFSET 1.872952 0.000000 0.000000
                                        }
                                    }
                                }
                            }
                            JOINT LeftHandMiddle1
                            {
                                OFFSET 8.680775 0.000001 1.118862
                                CHANNELS 3 Zrotation Xrotation Yrotation
                                JOINT LeftHandMiddle2
                                {
                                    OFFSET 4.640000 0.000002 -0.000000
                                    CHANNELS 3 Zrotation Xrotation Yrotation
                                    JOINT LeftHandMiddle3
                                    {
                                        OFFSET 2.530906 0.000005 0.000000
                                        CHANNELS 3 Zrotation Xrotation Yrotation
                                        End Site
                                        {
                                            OFFSET 2.247544 0.000000 0.000000
                                        }
                                    }
                                }
                            }
                            JOINT LeftHandRing1
                            {
                                OFFSET 8.198514 -0.000004 -1.118859
                                CHANNELS 3 Zrotation Xrotation Yrotation
                                JOINT LeftHandRing2
                                {
                                    OFFSET 4.218182 -0.000003 -0.000001
                                    CHANNELS 3 Zrotation Xrotation Yrotation
                                    JOINT LeftHandRing3
                                    {
                                        OFFSET 2.109086 0.000004 0.000001
                                        CHANNELS 3 Zrotation Xrotation Yrotation
                                        End Site
                                        {
                                            OFFSET 1.872952 0.000000 0.000000
                                        }
                                    }
                                }
                            }
                            JOINT LeftHandPinky1
                            {
                                OFFSET 7.716242 0.000005 -3.375859
                                CHANNELS 3 Zrotation Xrotation Yrotation
                                JOINT LeftHandPinky2
                                {
                                    OFFSET 3.374535 0.000004 0.000002
                                    CHANNELS 3 Zrotation Xrotation Yrotation
                                    JOINT LeftHandPinky3
                                    {
                                        OFFSET 1.687275 0.000002 -0.000001
                                        CHANNELS 3 Zrotation Xrotation Yrotation
                                        End Site
                                        {
                                            OFFSET 1.498360 0.000000 0.000000
                                        }
                                    }
                                }
                            }
                        }
                    }
                }
            }
            JOINT RightShoulder
            {
                OFFSET -3.550531 15.465694 -0.908802
                CHANNELS 3 Zrotation Xrotation Yrotation
                JOINT RightArm
                {
                    OFFSET -12.513298 -0.000004 0.000001
                    CHANNELS 3 Zrotation Xrotation Yrotation
                    JOINT RightForeArm
                    {
                        OFFSET -24.225996 -0.000002 -0.000000
                        CHANNELS 3 Zrotation Xrotation Yrotation
                        JOINT RightHand
                        {
                            OFFSET -20.711401 0.000005 0.000001
                            CHANNELS 3 Zrotation Xrotation Yrotation
                            JOINT RightHandThumb1
                            {
                                OFFSET -2.121970 -2.411334 3.375861
                                CHANNELS 3 Zrotation Xrotation Yrotation
                                JOINT RightHandThumb2
                                {
                                    OFFSET -2.803210 0.000003 -0.000004
                                    CHANNELS 3 Zrotation Xrotation Yrotation
                                    JOINT RightHandThumb3
                                    {
                                        OFFSET -2.395930 -0.000001 0.000002
                                        CHANNELS 3 Zrotation Xrotation Yrotation
                                        End Site
                                        {
                                            OFFSET -2.127676 0.000000 0.000000
                                        }
                                    }
                                }
                            }
                            JOINT RightHandIndex1
                            {
                                OFFSET -8.680779 0.000001 3.375860
                                CHANNELS 3 Zrotation Xrotation Yrotation
                                JOINT RightHandIndex2
                                {
                                    OFFSET -4.218180 0.000000 -0.000000
                                    CHANNELS 3 Zrotation Xrotation Yrotation
                                    JOINT RightHandIndex3
                                    {
                                        OFFSET -2.109090 0.000001 -0.000000
                                        CHANNELS 3 Zrotation Xrotation Yrotation
                                        End Site
                                        {
                                            OFFSET -1.872952 0.000000 0.000000
                                        }
                                    }
                                }
                            }
                            JOINT RightHandMiddle1
                            {
                                OFFSET -8.680780 0.000001 1.118860
                                CHANNELS 3 Zrotation Xrotation Yrotation
                                JOINT RightHandMiddle2
                                {
                                    OFFSET -4.640000 -0.000002 0.000001
                                    CHANNELS 3 Zrotation Xrotation Yrotation
                                    JOINT RightHandMiddle3
                                    {
                                        OFFSET -2.530910 0.000001 -0.000000
                                        CHANNELS 3 Zrotation Xrotation Yrotation
                                        End Site
                                        {
                                            OFFSET -2.247544 0.000000 0.000000
                                        }
                                    }
                                }
                            }
                            JOINT RightHandRing1
                            {
                                OFFSET -8.198519 0.000005 -1.118860
                                CHANNELS 3 Zrotation Xrotation Yrotation
                                JOINT RightHandRing2
                                {
                                    OFFSET -4.218180 -0.000006 0.000000
                                    CHANNELS 3 Zrotation Xrotation Yrotation
                                    JOINT RightHandRing3
                                    {
                                        OFFSET -2.109090 0.000001 -0.000000
                                        CHANNELS 3 Zrotation Xrotation Yrotation
                                        End Site
                                        {
                                            OFFSET -1.872952 0.000000 0.000000
                                        }
                                    }
                                }
                            }
                            JOINT RightHandPinky1
                            {
                                OFFSET -7.716248 -0.000002 -3.375859
                                CHANNELS 3 Zrotation Xrotation Yrotation
                                JOINT RightHandPinky2
                                {
                                    OFFSET -3.374540 0.000000 0.000000
                                    CHANNELS 3 Zrotation Xrotation Yrotation
                                    JOINT RightHandPinky3
                                    {
                                        OFFSET -1.687270 0.000004 0.000001
                                        CHANNELS 3 Zrotation Xrotation Yrotation
                                        End Site
                                        {
                                            OFFSET -1.498360 0.000000 0.000000
                                        }
                                    }
                                }
                            }
                        }
                    }
                }
            }
        }
    }
    JOINT LeftUpLeg
    {
        OFFSET 8.880376 -0.000000 -0.000000
        CHANNELS 3 Zrotation Xrotation Yrotation
        JOINT LeftLeg
        {
            OFFSET -0.000001 -40.387405 -0.000001
            CHANNELS 3 Zrotation Xrotation Yrotation
            JOINT LeftFoot
            {
                OFFSET -0.000001 -36.911297 -0.000001
                CHANNELS 3 Zrotation Xrotation Yrotation
                JOINT LeftToeBase
                {
                    OFFSET -0.000002 -5.772240 13.320604
                    CHANNELS 3 Zrotation Xrotation Yrotation
                    End Site
                    {
                        OFFSET 0.000000 0.000000 3.552151
                    }
                }
            }
        }
    }
    JOINT RightUpLeg
    {
        OFFSET -8.880376 0.000000 0.000000
        CHANNELS 3 Zrotation Xrotation Yrotation
        JOINT RightLeg
        {
            OFFSET -0.000001 -40.387390 0.000000
            CHANNELS 3 Zrotation Xrotation Yrotation
            JOINT RightFoot
            {
                OFFSET 0.000002 -36.911297 -0.000001
                CHANNELS 3 Zrotation Xrotation Yrotation
                JOINT RightToeBase
                {
                    OFFSET 0.000001 -5.772238 13.320600
                    CHANNELS 3 Zrotation Xrotation Yrotation
                    End Site
                    {
                        OFFSET 0.000000 0.000000 3.552151
                    }
                }
            }
        }
    }
}
MOTION
Frames: 4
Frame Time: 0.013889
73.903534    83.919380    13.953206    -1.954029    8.910362    2.515465    0.142692    -21.807255    0.384106    0.723871    15.542911    0.149630    0.155632    -12.384345    -2.337085    3.071603    4.176417    -2.647317    -1.868969    6.169354    -1.430490    -65.702255    39.251492    -12.229669    -7.152143    -22.081596    -18.458551    -1.508399    5.500794    7.548247    27.922880    36.805626    -39.945930    -11.147135    0.327894    23.315300    -0.000000    0.000000    -0.000000    -6.942967    17.876396    -5.084150    -6.606237    0.000002    -0.000003    -6.606233    0.000000    0.000000    -4.564394    8.971927    -2.899154    -4.508425    0.000000    0.000000    -4.508422    0.000002    0.000003    -3.502539    -8.983466    -2.718348    -3.459525    0.000002    0.000000    -3.459511    -0.000002    0.000002    -2.534527    -17.983477    -5.124501    -2.410621    -0.000001    0.000000    -2.410618    -0.000000    0.000001    6.384525    6.917260    5.071957    59.211285    42.021519    12.051870    4.424538    -16.684780    15.083170    9.452930    -2.216034    -9.712941    -36.823380    30.511173    42.554794    13.830435    -0.828458    -23.303572    -0.000000    0.000000    -0.000000    14.211538    17.483126    7.971615    13.542206    -0.000005    -0.000001    13.542212    0.000001    -0.000004    17.418795    8.593591    3.477148    17.217096    -0.000000    -0.000002    17.217091    -0.000001    -0.000003    19.274639    -8.503119    1.946429    19.054539    -0.000002    -0.000001    19.054533    -0.000001    0.000002    21.867846    -16.780136    4.582189    20.891991    -0.000001    -0.000005    20.891983    0.000001    0.000002    -1.036160    -8.446637    3.612104    0.000000    6.787110    -0.000001    -5.107520    -6.704448    -9.745975    0.000002    -2.063242    0.000000    -0.016870    -8.797496    -8.637645    0.000000    8.572289    -0.000002    2.162611    -6.439987    1.292053    0.000000    4.509776    -0.000000    
73.905182    83.916313    13.971164    -2.041819    8.915718    2.592381    0.171642    -21.733986    0.463515    0.650302    15.549240    0.240508    0.229779    -12.488445    -2.494035    3.114478    4.159536    -2.827770    -1.894963    6.170022    -1.506314    -65.355453    39.477425    -12.399032    -7.222425    -22.080873    -18.629810    -1.735515    5.498264    7.440217    27.856482    36.850548    -39.928692    -11.190559    0.309183    23.315536    -0.000000    0.000000    -0.000000    -6.984113    17.874918    -4.985981    -6.645422    -0.000002    -0.000000    -6.645424    -0.000000    0.000002    -4.580378    8.971731    -2.853890    -4.524218    -0.000000    0.000001    -4.524212    -0.000000    0.000001    -3.506689    -8.983428    -2.702518    -3.463613    -0.000002    0.000002    -3.463630    0.000001    -0.000000    -2.526529    -17.983583    -5.089077    -2.403020    -0.000000    0.000001    -2.403023    0.000000    -0.000001    6.264478    6.948896    5.281252    58.657459    42.946777    12.519831    4.315710    -16.259926    15.084292    10.282649    -2.257495    -10.148409    -37.094555    30.291397    42.712566    13.748960    -0.793362    -23.304724    -0.000000    0.000000    -0.000000    14.415075    17.468248    8.124884    13.736951    -0.000008    0.000004    13.736938    -0.000005    0.000001    17.526999    8.588559    3.568180    17.324221    -0.000007    0.000001    17.324207    0.000003    -0.000000    19.338551    -8.499846    1.921200    19.117861    -0.000004    -0.000001    19.117846    0.000001    -0.000000    21.888077    -16.777882    4.518668    20.911480    -0.000007    -0.000001    20.911480    0.000000    0.000002    -0.978422    -8.615868    3.508093    -0.000000    7.101836    0.000000    -4.846211    -6.740868    -9.695513    0.000000    -2.040261    0.000000    0.057840    -8.806899    -8.686024    0.000000    8.613762    -0.000001    2.136520    -6.422630    1.259885    0.000000    4.488320    -0.000001    
73.902130    83.908394    13.991218    -2.114301    8.920064    2.637802    0.193763    -21.675938    0.524584    0.603417    15.541689    0.308014    0.286398    -12.558183    -2.610312    3.112425    4.154490    -2.959814    -1.921008    6.169365    -1.526065    -65.083923    39.674137    -12.535384    -7.277208    -22.075788    -18.766495    -1.966022    5.503102    7.287300    27.818062    36.876335    -39.907417    -11.216526    0.297982    23.315680    -0.000000    0.000000    -0.000000    -7.104893    17.870564    -4.892387    -6.760464    0.000002    -0.000002    -6.760449    -0.000002    -0.000000    -4.635151    8.971049    -2.817086    -4.578337    -0.000003    -0.000001    -4.578321    0.000002    0.000005    -3.530628    -8.983205    -2.703979    -3.487270    -0.000001    0.000001    -3.487279    0.000000    -0.000003    -2.519366    -17.983675    -5.082314    -2.396209    0.000000    -0.000001    -2.396216    -0.000001    -0.000001    6.139685    6.954192    5.424616    58.182167    43.689812    12.960238    4.246965    -15.961775    15.111625    10.821890    -2.340505    -10.439023    -37.382252    30.055426    42.882435    13.648964    -0.750293    -23.306070    -0.000000    0.000000    -0.000000    14.518145    17.460646    8.274129    13.835541    -0.000007    0.000011    13.835538    0.000003    -0.000004    17.583656    8.585917    3.649807    17.380295    -0.000004    0.000011    17.380289    -0.000002    0.000004    19.373718    -8.498038    1.941451    19.152664    0.000003    0.000006    19.152660    -0.000002    0.000000    21.902145    -16.776327    4.552844    20.925039    -0.000000    0.000007    20.925035    -0.000000    -0.000002    -0.933915    -8.764682    3.371533    -0.000000    7.395529    0.000001    -4.559926    -6.811234    -9.592229    0.000002    -2.031740    -0.000000    0.127240    -8.809455    -8.707881    -0.000000    8.641703    -0.000001    2.121021    -6.429691    1.243698    0.000000    4.457602    -0.000001    
73.904305    83.905106    14.008345    -2.183910    8.919284    2.702269    0.217615    -21.619081    0.590632    0.551581    15.551714    0.381127    0.336340    -12.648987    -2.712142    3.093420    4.139073    -3.074360    -1.938737    6.174466    -1.621628    -64.780014    39.929920    -12.712382    -7.304930    -22.005358    -18.886881    -2.188497    5.598636    7.220196    27.820065    36.874546    -39.887474    -11.218718    0.297040    23.315683    -0.000000    0.000000    -0.000000    -7.236760    17.865717    -4.778097    -6.886053    0.000000    -0.000002    -6.886059    0.000000    -0.000003    -4.683007    8.970450    -2.772710    -4.625599    -0.000000    0.000001    -4.625597    -0.000002    -0.000002    -3.538836    -8.983128    -2.700369    -3.495376    0.000001    -0.000002    -3.495370    0.000001    -0.000000    -2.486714    -17.984100    -5.062448    -2.365141    0.000001    -0.000001    -2.365141    -0.000001    0.000001    6.000695    6.972041    5.608123    57.628757    44.487274    13.460970    4.158954    -15.599474    15.131260    11.427310    -2.406514    -10.641321    -37.637695    29.844133    43.032318    13.561692    -0.712706    -23.307196    -0.000000    0.000000    -0.000000    14.584918    17.455685    8.429408    13.899447    -0.000010    0.000005    13.899427    0.000001    -0.000004    17.626242    8.583926    3.731110    17.422424    -0.000014    -0.000012    17.422436    0.000002    0.000007    19.405291    -8.496412    1.979606    19.183935    -0.000008    -0.000004    19.183928    0.000000    -0.000000    21.923300    -16.773972    4.625934    20.945433    -0.000008    -0.000011    20.945427    0.000001    -0.000000    -0.892280    -8.933472    3.222903    0.000000    7.728102    -0.000000    -4.243125    -6.921365    -9.462448    0.000000    -2.056005    -0.000000    0.184263    -8.799594    -8.755096    -0.000000    8.657744    -0.000001    2.107485    -6.422652    1.237489    -0.000000    4.429203    0.000000    
